<?xml version="1.0" encoding="UTF-8"?>
<!DOCTYPE svg PUBLIC "-//W3C//DTD SVG 1.1//EN" "http://www.w3.org/Graphics/SVG/1.1/DTD/svg11.dtd">
<svg xmlns="http://www.w3.org/2000/svg" version="1.1" width="192px" height="192px" style="shape-rendering:geometricPrecision; text-rendering:geometricPrecision; image-rendering:optimizeQuality; fill-rule:evenodd; clip-rule:evenodd" xmlns:xlink="http://www.w3.org/1999/xlink">
<g><path style="opacity:0.004" fill="#fefffe" d="M 77.5,3.5 C 78.8333,4.16667 78.8333,4.16667 77.5,3.5 Z"/></g>
<g><path style="opacity:0.004" fill="#4d2af5" d="M 101.5,5.5 C 96.5276,6.17027 91.5276,6.5036 86.5,6.5C 89.4129,4.99759 92.5796,3.99759 96,3.5C 97.9483,4.10936 99.7816,4.77602 101.5,5.5 Z"/></g>
<g><path style="opacity:0.99" fill="#ebe8fb" d="M 86.5,6.5 C 91.5276,6.5036 96.5276,6.17027 101.5,5.5C 109.012,6.65708 116.179,6.65708 123,5.5C 164.127,7.29455 184.961,28.7945 185.5,70C 184.801,86.2533 184.801,102.253 185.5,118C 184.85,127.512 183.684,137.012 182,146.5C 175.109,167.226 160.943,179.559 139.5,183.5C 136.219,183.42 133.219,184.087 130.5,185.5C 130.167,185.5 129.833,185.5 129.5,185.5C 120.835,186.17 112.168,186.17 103.5,185.5C 103.938,185.565 104.272,185.399 104.5,185C 103.833,184.667 103.167,184.333 102.5,184C 107.727,183.088 112.893,181.921 118,180.5C 130.48,177.729 141.147,171.396 150,161.5C 161.425,148.042 169.425,132.709 174,115.5C 174.8,112.365 176.634,110.198 179.5,109C 177.314,108.396 177.148,107.23 179,105.5C 180.84,106.833 181.34,106.666 180.5,105C 181.667,104.5 182.5,103.667 183,102.5C 184.097,93.2952 183.263,84.2952 180.5,75.5C 181.731,72.4616 181.564,69.4616 180,66.5C 177.236,64.5065 176.403,62.0065 177.5,59C 175.981,56.4219 175.148,53.5886 175,50.5C 172.12,46.3615 169.454,42.0282 167,37.5C 162.277,32.4477 157.611,27.4477 153,22.5C 150.731,23.5947 148.564,23.2614 146.5,21.5C 145.571,20.3112 145.238,18.9778 145.5,17.5C 142.316,17.8331 138.982,17.9998 135.5,18C 132.751,19.6174 130.917,21.4508 130,23.5C 120.587,19.4424 110.921,17.1091 101,16.5C 99.968,18.1445 98.8013,18.4779 97.5,17.5C 96.2997,18.5312 94.9663,19.3645 93.5,20C 82.6104,22.787 71.9438,26.1203 61.5,30C 47.7636,38.6413 35.9303,49.4746 26,62.5C 19.9613,73.3515 16.9613,85.0182 17,97.5C 15.8333,99 14.6667,100.5 13.5,102C 14.911,111.732 17.2443,121.232 20.5,130.5C 19.0977,131.842 19.4311,132.676 21.5,133C 20.3474,134.883 18.6807,135.716 16.5,135.5C 16.3379,137.527 16.5045,139.527 17,141.5C 19.9132,143.596 20.0799,145.762 17.5,148C 20.738,148.232 23.238,149.732 25,152.5C 25.3114,153.742 24.8114,154.742 23.5,155.5C 27.7439,157.247 30.4106,160.247 31.5,164.5C 36.6407,165.949 41.3073,168.449 45.5,172C 44.5494,172.718 44.3828,173.551 45,174.5C 45.6891,173.643 46.5224,172.977 47.5,172.5C 54.6518,176.693 62.1518,180.36 70,183.5C 71.159,182.434 71.9924,182.767 72.5,184.5C 72.1667,184.5 71.8333,184.5 71.5,184.5C 43.9422,187.31 23.7755,176.643 11,152.5C 9.79768,149.226 8.79768,145.893 8,142.5C 7.08301,132.952 6.24967,123.452 5.5,114C 5.75178,107.163 5.75178,100.663 5.5,94.5C 5.60614,80.1093 6.43947,65.1093 8,49.5C 12.4396,29.0593 24.6062,15.5593 44.5,9C 59.3891,6.15539 73.3891,5.32206 86.5,6.5 Z"/></g>
<g><path style="opacity:1" fill="#e8e4fb" d="M 103.5,185.5 C 95.9321,186.34 87.5987,186.34 78.5,185.5C 78.5,184.833 78.1667,184.5 77.5,184.5C 76.8333,184.833 76.1667,185.167 75.5,185.5C 74.791,184.596 73.791,184.263 72.5,184.5C 71.9924,182.767 71.159,182.434 70,183.5C 62.1518,180.36 54.6518,176.693 47.5,172.5C 46.5224,172.977 45.6891,173.643 45,174.5C 44.3828,173.551 44.5494,172.718 45.5,172C 41.3073,168.449 36.6407,165.949 31.5,164.5C 30.4106,160.247 27.7439,157.247 23.5,155.5C 24.8114,154.742 25.3114,153.742 25,152.5C 23.238,149.732 20.738,148.232 17.5,148C 20.0799,145.762 19.9132,143.596 17,141.5C 16.5045,139.527 16.3379,137.527 16.5,135.5C 18.6807,135.716 20.3474,134.883 21.5,133C 19.4311,132.676 19.0977,131.842 20.5,130.5C 17.2443,121.232 14.911,111.732 13.5,102C 14.6667,100.5 15.8333,99 17,97.5C 16.9613,85.0182 19.9613,73.3515 26,62.5C 35.9303,49.4746 47.7636,38.6413 61.5,30C 71.9438,26.1203 82.6104,22.787 93.5,20C 94.9663,19.3645 96.2997,18.5312 97.5,17.5C 98.8013,18.4779 99.968,18.1445 101,16.5C 110.921,17.1091 120.587,19.4424 130,23.5C 130.917,21.4508 132.751,19.6174 135.5,18C 138.982,17.9998 142.316,17.8331 145.5,17.5C 145.238,18.9778 145.571,20.3112 146.5,21.5C 148.564,23.2614 150.731,23.5947 153,22.5C 157.611,27.4477 162.277,32.4477 167,37.5C 169.454,42.0282 172.12,46.3615 175,50.5C 175.148,53.5886 175.981,56.4219 177.5,59C 176.403,62.0065 177.236,64.5065 180,66.5C 181.564,69.4616 181.731,72.4616 180.5,75.5C 183.263,84.2952 184.097,93.2952 183,102.5C 182.5,103.667 181.667,104.5 180.5,105C 181.34,106.666 180.84,106.833 179,105.5C 177.148,107.23 177.314,108.396 179.5,109C 176.634,110.198 174.8,112.365 174,115.5C 169.425,132.709 161.425,148.042 150,161.5C 141.147,171.396 130.48,177.729 118,180.5C 112.893,181.921 107.727,183.088 102.5,184C 103.167,184.333 103.833,184.667 104.5,185C 104.272,185.399 103.938,185.565 103.5,185.5 Z"/></g>
<g><path style="opacity:1" fill="#e4ddfa" d="M 91.5,36.5 C 126.592,31.4901 149.425,46.1568 160,80.5C 164.46,116.743 151.294,144.577 120.5,164C 106.565,169.542 92.5654,169.542 78.5,164C 54.6679,155.17 38.6679,138.836 30.5,115C 31.0585,114.275 31.3918,113.442 31.5,112.5C 28.832,102.342 29.332,92.3423 33,82.5C 36.6667,76.5 40.3333,70.5 44,64.5C 46.7663,61.2232 49.933,58.5566 53.5,56.5C 51.7328,58.9384 50.3994,61.605 49.5,64.5C 47.3412,67.4841 45.6745,70.8174 44.5,74.5C 44.3713,76.2161 44.038,77.8828 43.5,79.5C 38.2139,90.2184 37.2139,101.385 40.5,113C 39.9186,113.893 39.5852,114.893 39.5,116C 47.7762,137.605 63.1095,151.605 85.5,158C 110.074,163.131 128.907,154.964 142,133.5C 155.122,112.986 156.789,91.6523 147,69.5C 145.933,67.3083 144.433,65.6417 142.5,64.5C 140.549,61.2139 138.215,58.2139 135.5,55.5C 133.108,50.7749 129.441,47.4416 124.5,45.5C 120.431,42.1319 115.764,39.7986 110.5,38.5C 106.01,36.8887 101.343,36.222 96.5,36.5C 94.8333,36.5 93.1667,36.5 91.5,36.5 Z"/></g>
<g><path style="opacity:1" fill="#99affb" d="M 91.5,36.5 C 93.1667,36.5 94.8333,36.5 96.5,36.5C 96.1412,38.371 95.1412,39.871 93.5,41C 82.4098,49.8649 69.7432,54.6983 55.5,55.5C 61.945,47.2519 70.2783,41.4185 80.5,38C 84.1454,37.2811 87.8121,36.7811 91.5,36.5 Z"/></g>
<g><path style="opacity:1" fill="#949ff9" d="M 96.5,36.5 C 101.343,36.222 106.01,36.8887 110.5,38.5C 109.797,40.7157 108.464,42.549 106.5,44C 89.4195,55.8627 70.4195,62.696 49.5,64.5C 50.3994,61.605 51.7328,58.9384 53.5,56.5C 54.1667,56.1667 54.8333,55.8333 55.5,55.5C 69.7432,54.6983 82.4098,49.8649 93.5,41C 95.1412,39.871 96.1412,38.371 96.5,36.5 Z"/></g>
<g><path style="opacity:1" fill="#9189f7" d="M 110.5,38.5 C 115.764,39.7986 120.431,42.1319 124.5,45.5C 113.698,52.0695 102.365,57.9028 90.5,63C 75.0451,67.7084 59.7118,71.5417 44.5,74.5C 45.6745,70.8174 47.3412,67.4841 49.5,64.5C 70.4195,62.696 89.4195,55.8627 106.5,44C 108.464,42.549 109.797,40.7157 110.5,38.5 Z"/></g>
<g><path style="opacity:1" fill="#927bf5" d="M 124.5,45.5 C 129.441,47.4416 133.108,50.7749 135.5,55.5C 133.692,55.4914 132.025,55.9914 130.5,57C 130.833,57.3333 131.167,57.6667 131.5,58C 129.888,58.7203 128.388,58.5536 127,57.5C 126.395,59.4812 125.395,59.8146 124,58.5C 118.379,60.9324 112.546,62.9324 106.5,64.5C 105.41,66.003 104.243,66.3363 103,65.5C 100.731,67.2687 98.3977,67.9353 96,67.5C 93.305,68.6148 90.805,69.9482 88.5,71.5C 88.1788,69.9519 87.1788,69.2852 85.5,69.5C 85.5,84.1667 85.5,98.8333 85.5,113.5C 84.8333,102.326 84.1667,90.9929 83.5,79.5C 82.8333,87.9904 82.1666,96.3237 81.5,104.5C 81.5,95.5 81.5,86.5 81.5,77.5C 80.5,77.5 79.5,77.5 78.5,77.5C 78.5,86.5 78.5,95.5 78.5,104.5C 77.5076,96.6841 77.1743,88.6841 77.5,80.5C 71.9263,81.3664 66.2596,82.3664 60.5,83.5C 56.013,81.0772 51.513,81.0772 47,83.5C 46.6667,83.1667 46.3333,82.8333 46,82.5C 44.3743,83.9555 43.2076,85.6221 42.5,87.5C 42.8333,84.8333 43.1667,82.1667 43.5,79.5C 44.038,77.8828 44.3713,76.2161 44.5,74.5C 59.7118,71.5417 75.0451,67.7084 90.5,63C 102.365,57.9028 113.698,52.0695 124.5,45.5 Z"/></g>
<g><path style="opacity:1" fill="#9070f5" d="M 135.5,55.5 C 138.215,58.2139 140.549,61.2139 142.5,64.5C 149.645,78.6424 150.312,92.9757 144.5,107.5C 143.458,105.261 142.125,103.095 140.5,101C 140.833,100.667 141.167,100.333 141.5,100C 140.328,99.5814 139.328,98.9147 138.5,98C 138.5,96.6667 138.5,95.3333 138.5,94C 136.926,93.6643 135.592,92.8309 134.5,91.5C 135.381,90.0295 136.714,89.1962 138.5,89C 135.624,88.5621 132.957,87.5621 130.5,86C 131.451,85.2825 131.617,84.4491 131,83.5C 129.951,84.5171 128.784,84.6838 127.5,84C 126.355,81.5821 124.855,79.4155 123,77.5C 122.586,77.9574 122.086,78.2907 121.5,78.5C 120.167,77.5 118.833,76.5 117.5,75.5C 116.522,75.9767 115.689,76.6433 115,77.5C 114.131,74.2374 112.797,73.9041 111,76.5C 109.667,75.8333 108.333,75.1667 107,74.5C 103.902,75.3024 100.735,75.969 97.5,76.5C 96.2867,76.7472 95.62,77.4138 95.5,78.5C 94.8501,78.1961 94.1835,77.8627 93.5,77.5C 92.5018,86.4754 92.1685,95.4754 92.5,104.5C 91.5093,98.021 91.176,91.3543 91.5,84.5C 90.5,84.5 89.5,84.5 88.5,84.5C 88.5,80.1667 88.5,75.8333 88.5,71.5C 90.805,69.9482 93.305,68.6148 96,67.5C 98.3977,67.9353 100.731,67.2687 103,65.5C 104.243,66.3363 105.41,66.003 106.5,64.5C 112.546,62.9324 118.379,60.9324 124,58.5C 125.395,59.8146 126.395,59.4812 127,57.5C 128.388,58.5536 129.888,58.7203 131.5,58C 131.167,57.6667 130.833,57.3333 130.5,57C 132.025,55.9914 133.692,55.4914 135.5,55.5 Z"/></g>
<g><path style="opacity:1" fill="#f1edfb" d="M 88.5,71.5 C 88.5,75.8333 88.5,80.1667 88.5,84.5C 88.5,91.1667 88.5,97.8333 88.5,104.5C 88.5,107.5 88.5,110.5 88.5,113.5C 87.5,113.5 86.5,113.5 85.5,113.5C 85.5,98.8333 85.5,84.1667 85.5,69.5C 87.1788,69.2852 88.1788,69.9519 88.5,71.5 Z"/></g>
<g><path style="opacity:0.004" fill="#0000ff" d="M 4.5,74.5 C 5.83333,75.1667 5.83333,75.1667 4.5,74.5 Z"/></g>
<g><path style="opacity:1" fill="#f0ecfb" d="M 81.5,104.5 C 80.791,105.404 79.791,105.737 78.5,105.5C 78.5,105.167 78.5,104.833 78.5,104.5C 78.5,95.5 78.5,86.5 78.5,77.5C 79.5,77.5 80.5,77.5 81.5,77.5C 81.5,86.5 81.5,95.5 81.5,104.5 Z"/></g>
<g><path style="opacity:1" fill="#f1ecfb" d="M 95.5,78.5 C 95.5,80.1667 95.5,81.8333 95.5,83.5C 95.5,90.8333 95.5,98.1667 95.5,105.5C 94.209,105.737 93.209,105.404 92.5,104.5C 92.1685,95.4754 92.5018,86.4754 93.5,77.5C 94.1835,77.8627 94.8501,78.1961 95.5,78.5 Z"/></g>
<g><path style="opacity:1" fill="#e7defb" d="M 109.5,87.5 C 109.5,93.5 109.5,99.5 109.5,105.5C 108.167,105.5 106.833,105.5 105.5,105.5C 105.5,98.5 105.5,91.5 105.5,84.5C 105.338,82.4727 105.505,80.4727 106,78.5C 106.718,77.5494 107.551,77.3828 108.5,78C 109.451,81.0567 109.784,84.2234 109.5,87.5 Z"/></g>
<g><path style="opacity:1" fill="#e0d5fa" d="M 142.5,64.5 C 144.433,65.6417 145.933,67.3083 147,69.5C 156.789,91.6523 155.122,112.986 142,133.5C 128.907,154.964 110.074,163.131 85.5,158C 63.1095,151.605 47.7762,137.605 39.5,116C 39.5852,114.893 39.9186,113.893 40.5,113C 37.2139,101.385 38.2139,90.2184 43.5,79.5C 43.1667,82.1667 42.8333,84.8333 42.5,87.5C 42.5167,92.9299 43.1834,98.2632 44.5,103.5C 52.5397,129.527 70.2063,143.027 97.5,144C 98.6439,147.526 100.644,150.526 103.5,153C 106.551,153.857 109.217,153.19 111.5,151C 117.003,146.663 122.003,141.83 126.5,136.5C 134.769,128.307 140.769,118.641 144.5,107.5C 150.312,92.9757 149.645,78.6424 142.5,64.5 Z"/></g>
<g><path style="opacity:1" fill="#e6dcfa" d="M 116.5,95.5 C 116.824,98.694 115.658,99.694 113,98.5C 112.502,95.5184 112.335,92.5184 112.5,89.5C 111.756,86.0504 113.09,84.3838 116.5,84.5C 116.5,88.1667 116.5,91.8333 116.5,95.5 Z"/></g>
<g><path style="opacity:1" fill="#9268f4" d="M 144.5,107.5 C 140.769,118.641 134.769,128.307 126.5,136.5C 124.566,133.728 125.233,131.895 128.5,131C 126.606,129.921 126.273,128.587 127.5,127C 126.5,126 125.5,125 124.5,124C 125.167,123.667 125.833,123.333 126.5,123C 126.384,121.732 126.051,120.398 125.5,119C 127.485,114.765 128.152,110.431 127.5,106C 126.448,104.881 125.281,104.381 124,104.5C 123.667,105.167 123.333,105.833 123,106.5C 121.311,102.44 119.144,98.7734 116.5,95.5C 116.5,91.8333 116.5,88.1667 116.5,84.5C 113.09,84.3838 111.756,86.0504 112.5,89.5C 111.5,88.8333 110.5,88.1667 109.5,87.5C 109.784,84.2234 109.451,81.0567 108.5,78C 107.551,77.3828 106.718,77.5494 106,78.5C 105.505,80.4727 105.338,82.4727 105.5,84.5C 104.209,84.2627 103.209,84.596 102.5,85.5C 101.85,85.1961 101.183,84.8627 100.5,84.5C 99.5067,89.1196 99.1734,93.7863 99.5,98.5C 98.6739,93.6835 98.1739,88.6835 98,83.5C 97.2303,84.5981 96.397,84.5981 95.5,83.5C 95.5,81.8333 95.5,80.1667 95.5,78.5C 95.62,77.4138 96.2867,76.7472 97.5,76.5C 100.735,75.969 103.902,75.3024 107,74.5C 108.333,75.1667 109.667,75.8333 111,76.5C 112.797,73.9041 114.131,74.2374 115,77.5C 115.689,76.6433 116.522,75.9767 117.5,75.5C 118.833,76.5 120.167,77.5 121.5,78.5C 122.086,78.2907 122.586,77.9574 123,77.5C 124.855,79.4155 126.355,81.5821 127.5,84C 128.784,84.6838 129.951,84.5171 131,83.5C 131.617,84.4491 131.451,85.2825 130.5,86C 132.957,87.5621 135.624,88.5621 138.5,89C 136.714,89.1962 135.381,90.0295 134.5,91.5C 135.592,92.8309 136.926,93.6643 138.5,94C 138.5,95.3333 138.5,96.6667 138.5,98C 139.328,98.9147 140.328,99.5814 141.5,100C 141.167,100.333 140.833,100.667 140.5,101C 142.125,103.095 143.458,105.261 144.5,107.5 Z"/></g>
<g><path style="opacity:0.004" fill="#000000" d="M 5.5,94.5 C 4.83333,95.1667 4.83333,95.1667 5.5,94.5 Z"/></g>
<g><path style="opacity:1" fill="#945ff2" d="M 78.5,104.5 C 78.5,104.833 78.5,105.167 78.5,105.5C 75.2672,104.391 71.9338,103.558 68.5,103C 66.1739,100.586 63.3406,99.0864 60,98.5C 55.2731,100.35 50.1064,102.017 44.5,103.5C 43.1834,98.2632 42.5167,92.9299 42.5,87.5C 43.2076,85.6221 44.3743,83.9555 46,82.5C 46.3333,82.8333 46.6667,83.1667 47,83.5C 51.513,81.0772 56.013,81.0772 60.5,83.5C 66.2596,82.3664 71.9263,81.3664 77.5,80.5C 77.1743,88.6841 77.5076,96.6841 78.5,104.5 Z"/></g>
<g><path style="opacity:1" fill="#eee9fb" d="M 71.5,84.5 C 72.5,84.5 73.5,84.5 74.5,84.5C 74.6658,89.1785 74.4992,93.8452 74,98.5C 73.586,98.9574 73.086,99.2907 72.5,99.5C 71.5059,94.544 71.1725,89.544 71.5,84.5 Z"/></g>
<g><path style="opacity:0.004" fill="#0000ff" d="M 185.5,111.5 C 186.833,112.167 186.833,112.167 185.5,111.5 Z"/></g>
<g><path style="opacity:1" fill="#945ff2" d="M 95.5,83.5 C 96.397,84.5981 97.2303,84.5981 98,83.5C 98.1739,88.6835 98.6739,93.6835 99.5,98.5C 100.189,99.7736 101.023,99.7736 102,98.5C 102.499,94.1794 102.666,89.8461 102.5,85.5C 103.209,84.596 104.209,84.2627 105.5,84.5C 105.5,91.5 105.5,98.5 105.5,105.5C 106.833,105.5 108.167,105.5 109.5,105.5C 109.5,99.5 109.5,93.5 109.5,87.5C 110.5,88.1667 111.5,88.8333 112.5,89.5C 112.335,92.5184 112.502,95.5184 113,98.5C 115.658,99.694 116.824,98.694 116.5,95.5C 119.144,98.7734 121.311,102.44 123,106.5C 123.333,105.833 123.667,105.167 124,104.5C 125.281,104.381 126.448,104.881 127.5,106C 128.152,110.431 127.485,114.765 125.5,119C 126.051,120.398 126.384,121.732 126.5,123C 125.833,123.333 125.167,123.667 124.5,124C 125.5,125 126.5,126 127.5,127C 126.273,128.587 126.606,129.921 128.5,131C 125.233,131.895 124.566,133.728 126.5,136.5C 122.682,133.076 118.682,130.576 114.5,129C 113.284,127.406 111.951,125.906 110.5,124.5C 110.015,121.441 110.015,118.274 110.5,115C 109.584,114.626 108.75,114.126 108,113.5C 106.333,113.833 104.667,114.167 103,114.5C 101.54,112.578 99.8733,111.911 98,112.5C 94.9938,111.164 92.1604,109.497 89.5,107.5C 90.7768,106.078 90.4435,105.078 88.5,104.5C 88.5,97.8333 88.5,91.1667 88.5,84.5C 89.5,84.5 90.5,84.5 91.5,84.5C 91.176,91.3543 91.5093,98.021 92.5,104.5C 93.209,105.404 94.209,105.737 95.5,105.5C 95.5,98.1667 95.5,90.8333 95.5,83.5 Z"/></g>
<g><path style="opacity:1" fill="#efe9fb" d="M 102.5,85.5 C 102.666,89.8461 102.499,94.1794 102,98.5C 101.023,99.7736 100.189,99.7736 99.5,98.5C 99.1734,93.7863 99.5067,89.1196 100.5,84.5C 101.183,84.8627 101.85,85.1961 102.5,85.5 Z"/></g>
<g><path style="opacity:1" fill="#a359f1" d="M 85.5,113.5 C 86.5,113.5 87.5,113.5 88.5,113.5C 88.5,110.5 88.5,107.5 88.5,104.5C 90.4435,105.078 90.7768,106.078 89.5,107.5C 92.1604,109.497 94.9938,111.164 98,112.5C 99.8733,111.911 101.54,112.578 103,114.5C 104.667,114.167 106.333,113.833 108,113.5C 108.75,114.126 109.584,114.626 110.5,115C 110.015,118.274 110.015,121.441 110.5,124.5C 111.951,125.906 113.284,127.406 114.5,129C 118.682,130.576 122.682,133.076 126.5,136.5C 122.003,141.83 117.003,146.663 111.5,151C 109.217,153.19 106.551,153.857 103.5,153C 100.644,150.526 98.6439,147.526 97.5,144C 70.2063,143.027 52.5397,129.527 44.5,103.5C 50.1064,102.017 55.2731,100.35 60,98.5C 63.3406,99.0864 66.1739,100.586 68.5,103C 71.9338,103.558 75.2672,104.391 78.5,105.5C 79.791,105.737 80.791,105.404 81.5,104.5C 82.1666,96.3237 82.8333,87.9904 83.5,79.5C 84.1667,90.9929 84.8333,102.326 85.5,113.5 Z"/></g>
<g><path style="opacity:0.004" fill="#eaf7ff" d="M 139.5,183.5 C 138.531,184.309 137.698,185.309 137,186.5C 136,186.167 135,185.833 134,185.5C 133.722,186.416 133.222,187.082 132.5,187.5C 131.167,187.5 130.5,186.833 130.5,185.5C 133.219,184.087 136.219,183.42 139.5,183.5 Z"/></g>
<g><path style="opacity:0.004" fill="#58f9ff" d="M 71.5,184.5 C 71.8333,184.5 72.1667,184.5 72.5,184.5C 73.791,184.263 74.791,184.596 75.5,185.5C 74.8333,185.5 74.5,185.833 74.5,186.5C 73.603,185.402 72.7697,185.402 72,186.5C 71.5357,185.906 71.369,185.239 71.5,184.5 Z"/></g>
<g><path style="opacity:0.004" fill="#58f9ff" d="M 77.5,184.5 C 77.2914,185.922 76.7914,187.255 76,188.5C 75.2828,187.956 74.7828,187.289 74.5,186.5C 75.1667,186.5 75.5,186.167 75.5,185.5C 76.1667,185.167 76.8333,184.833 77.5,184.5 Z"/></g>
<g><path style="opacity:0.004" fill="#0000ff" d="M 67.5,185.5 C 68.8333,186.167 68.8333,186.167 67.5,185.5 Z"/></g>
<g><path style="opacity:0.004" fill="#30feff" d="M 88.5,188.5 C 87.5349,188.4 86.3683,188.734 85,189.5C 83.9889,188.944 83.1556,188.278 82.5,187.5C 81.1667,187.5 79.8333,187.5 78.5,187.5C 78.5,187.167 78.5,186.833 78.5,186.5C 82.2316,184.988 85.5649,185.655 88.5,188.5 Z"/></g>
<g><path style="opacity:0.004" fill="#d72ef8" d="M 103.5,185.5 C 112.168,186.17 120.835,186.17 129.5,185.5C 128.458,186.791 127.292,186.791 126,185.5C 124.915,186.736 124.082,188.069 123.5,189.5C 122.527,190.791 121.527,190.791 120.5,189.5C 119.478,189.855 118.811,190.522 118.5,191.5C 118.167,191.5 117.833,191.5 117.5,191.5C 116.833,190.167 116.167,190.167 115.5,191.5C 114.5,191.5 113.5,191.5 112.5,191.5C 112.167,190.167 111.833,190.167 111.5,191.5C 110.5,191.5 109.5,191.5 108.5,191.5C 108.5,191.167 108.5,190.833 108.5,190.5C 108.189,189.522 107.522,188.855 106.5,188.5C 105.402,189.615 104.235,189.615 103,188.5C 101.989,189.056 101.156,189.722 100.5,190.5C 99.8333,190.5 99.5,190.833 99.5,191.5C 98.8333,191.5 98.1667,191.5 97.5,191.5C 96.9941,189.895 96.3274,189.561 95.5,190.5C 92.9833,189.459 90.65,188.792 88.5,188.5C 85.5649,185.655 82.2316,184.988 78.5,186.5C 78.5,186.167 78.5,185.833 78.5,185.5C 87.5987,186.34 95.9321,186.34 103.5,185.5 Z"/></g>
<g><path style="opacity:0.004" fill="#43fcff" d="M 129.5,185.5 C 129.833,185.5 130.167,185.5 130.5,185.5C 130.5,186.833 131.167,187.5 132.5,187.5C 132.5,187.833 132.5,188.167 132.5,188.5C 130.678,188.831 129.011,189.498 127.5,190.5C 126.432,189.566 125.099,189.232 123.5,189.5C 124.082,188.069 124.915,186.736 126,185.5C 127.292,186.791 128.458,186.791 129.5,185.5 Z"/></g>
<g><path style="opacity:0.004" fill="#0000ff" d="M 139.5,186.5 C 140.833,187.167 140.833,187.167 139.5,186.5 Z"/></g>
<g><path style="opacity:0.004" fill="#000000" d="M 78.5,187.5 C 79.8333,187.5 81.1667,187.5 82.5,187.5C 81.3656,189.781 80.0322,189.781 78.5,187.5 Z"/></g>
<g><path style="opacity:0.004" fill="#37fdff" d="M 108.5,190.5 C 107.209,190.263 106.209,190.596 105.5,191.5C 103.833,191.5 102.167,191.5 100.5,191.5C 100.5,191.167 100.5,190.833 100.5,190.5C 101.156,189.722 101.989,189.056 103,188.5C 104.235,189.615 105.402,189.615 106.5,188.5C 107.522,188.855 108.189,189.522 108.5,190.5 Z"/></g>
<g><path style="opacity:0.004" fill="#0000ff" d="M 132.5,188.5 C 133.833,189.167 133.833,189.167 132.5,188.5 Z"/></g>
<g><path style="opacity:0.004" fill="#000000" d="M 97.5,191.5 C 96.8333,191.5 96.1667,191.5 95.5,191.5C 95.5,191.167 95.5,190.833 95.5,190.5C 96.3274,189.561 96.9941,189.895 97.5,191.5 Z"/></g>
<g><path style="opacity:0.004" fill="#0000ff" d="M 135.5,189.5 C 136.833,190.167 136.833,190.167 135.5,189.5 Z"/></g>
<g><path style="opacity:0.004" fill="#000000" d="M 76.5,191.5 C 75.8333,190.167 75.8333,190.167 76.5,191.5 Z"/></g>
<g><path style="opacity:0.004" fill="#0000ff" d="M 127.5,190.5 C 127.5,190.833 127.5,191.167 127.5,191.5C 126.83,191.019 126.83,190.685 127.5,190.5 Z"/></g>
</svg>
